<svg width="111" height="36" viewBox="0 0 111 36" fill="none" xmlns="http://www.w3.org/2000/svg">
<path d="M85.117 22.3333C86.4228 22.3333 87.1064 20.405 87.1064 18.5C87.1064 16.595 86.4228 14.6667 85.117 14.6667C83.8113 14.6667 83.1277 16.595 83.1277 18.5C83.1277 20.405 83.8113 22.3333 85.117 22.3333ZM85.117 15.6667C85.3494 15.6667 86.0213 16.6408 86.0213 18.5C86.0213 20.3592 85.3494 21.3333 85.117 21.3333C84.8846 21.3333 84.2128 20.3592 84.2128 18.5C84.2128 16.6408 84.8846 15.6667 85.117 15.6667ZM86.8774 25.8536L87.261 26C88.9049 24.5833 90 21.7858 90 18.5C90 13.7333 87.696 10 84.7553 10H78.2447C75.304 10 73 13.7333 73 18.5C73 23.2667 75.304 27 78.2447 27L86.8774 26.8536C87.0213 26.8536 87.1593 26.8009 87.261 26.7071C87.3628 26.6133 87.4199 26.4862 87.4199 26.3536C87.4199 26.2209 87.3628 26.0938 87.261 26C87.1593 25.9062 87.0213 25.8536 86.8774 25.8536ZM88.9149 18.5C88.9149 22.5658 87.0096 26 84.7553 26C82.501 26 80.5957 22.5658 80.5957 18.5C80.5957 14.4342 82.501 11 84.7553 11C87.0096 11 88.9149 14.4342 88.9149 18.5ZM74.0851 18.5C74.0851 18.2617 74.0923 18.0258 74.105 17.7917L77.1596 15.7808L79.5559 17.3583C79.526 17.7308 79.5106 18.1083 79.5106 18.5C79.5054 19.5668 79.6267 20.6309 79.8723 21.6733L77.4715 20.09C77.3793 20.029 77.2686 19.9961 77.1551 19.9961C77.0415 19.9961 76.9308 20.029 76.8386 20.09L74.4785 21.6433C74.2126 20.6136 74.0806 19.5584 74.0851 18.5ZM78.2447 11H82.2496C81.0018 12.0767 80.0713 13.9458 79.6915 16.2208L77.4752 14.76C77.3829 14.699 77.2722 14.6661 77.1587 14.6661C77.0451 14.6661 76.9344 14.699 76.8422 14.76L74.247 16.4692C74.7515 13.3533 76.3783 11 78.2447 11ZM78.2447 26C76.8359 26 75.5645 24.66 74.8085 22.6667L77.1596 21.1183L80.3724 23.2342C80.8444 24.3942 81.4882 25.3467 82.2496 26.0042L78.2447 26Z" fill="#333333"/>
<path d="M2.12284 27V9.54545H8.66829C10.0092 9.54545 11.1342 9.79545 12.0433 10.2955C12.9581 10.7955 13.6484 11.483 14.1143 12.358C14.5859 13.2273 14.8217 14.2159 14.8217 15.3239C14.8217 16.4432 14.5859 17.4375 14.1143 18.3068C13.6427 19.1761 12.9467 19.8608 12.0262 20.3608C11.1058 20.8551 9.97227 21.1023 8.62568 21.1023H4.28761V18.5028H8.19954C8.98364 18.5028 9.62568 18.3665 10.1257 18.0938C10.6257 17.821 10.995 17.446 11.2336 16.9688C11.478 16.4915 11.6001 15.9432 11.6001 15.3239C11.6001 14.7045 11.478 14.1591 11.2336 13.6875C10.995 13.2159 10.6228 12.8494 10.1172 12.5881C9.61716 12.321 8.97227 12.1875 8.1825 12.1875H5.28477V27H2.12284ZM20.7245 27.2642C19.8949 27.2642 19.1478 27.1165 18.483 26.821C17.8239 26.5199 17.3012 26.0767 16.9148 25.4915C16.5341 24.9062 16.3438 24.1847 16.3438 23.3267C16.3438 22.5881 16.4801 21.9773 16.7529 21.4943C17.0256 21.0114 17.3978 20.625 17.8693 20.3352C18.3409 20.0455 18.8722 19.8267 19.4631 19.679C20.0597 19.5256 20.6762 19.4148 21.3125 19.3466C22.0796 19.267 22.7017 19.196 23.179 19.1335C23.6563 19.0653 24.0029 18.9631 24.2188 18.8267C24.4404 18.6847 24.5512 18.4659 24.5512 18.1705V18.1193C24.5512 17.4773 24.3608 16.9801 23.9801 16.6278C23.5995 16.2756 23.0512 16.0994 22.3353 16.0994C21.5796 16.0994 20.9801 16.2642 20.537 16.5938C20.0995 16.9233 19.804 17.3125 19.6506 17.7614L16.7699 17.3523C16.9972 16.5568 17.3722 15.892 17.8949 15.358C18.4176 14.8182 19.0568 14.4148 19.8125 14.1477C20.5682 13.875 21.4034 13.7386 22.3182 13.7386C22.9489 13.7386 23.5767 13.8125 24.2017 13.9602C24.8267 14.108 25.3978 14.3523 25.9148 14.6932C26.4318 15.0284 26.8466 15.4858 27.1591 16.0653C27.4773 16.6449 27.6364 17.3693 27.6364 18.2386V27H24.6705V25.2017H24.5682C24.3807 25.5653 24.1165 25.9062 23.7756 26.2244C23.4404 26.5369 23.0171 26.7898 22.5057 26.983C22 27.1705 21.4063 27.2642 20.7245 27.2642ZM21.5256 24.9972C22.1449 24.9972 22.6818 24.875 23.1364 24.6307C23.5909 24.3807 23.9404 24.0511 24.1847 23.642C24.4347 23.233 24.5597 22.7869 24.5597 22.304V20.7614C24.4631 20.8409 24.2983 20.9148 24.0654 20.983C23.8381 21.0511 23.5824 21.1108 23.2983 21.1619C23.0142 21.2131 22.733 21.2585 22.4546 21.2983C22.1762 21.3381 21.9347 21.3722 21.7301 21.4006C21.2699 21.4631 20.858 21.5653 20.4943 21.7074C20.1307 21.8494 19.8438 22.0483 19.6336 22.304C19.4233 22.554 19.3182 22.8778 19.3182 23.2756C19.3182 23.8438 19.5256 24.2727 19.9404 24.5625C20.3551 24.8523 20.8836 24.9972 21.5256 24.9972ZM30.4987 27V13.9091H33.4901V16.0909H33.6265C33.8651 15.3352 34.2742 14.7528 34.8538 14.3438C35.439 13.929 36.1066 13.7216 36.8566 13.7216C37.0271 13.7216 37.2174 13.7301 37.4276 13.7472C37.6436 13.7585 37.8225 13.7784 37.9646 13.8068V16.6449C37.8339 16.5994 37.6265 16.5597 37.3424 16.5256C37.064 16.4858 36.7941 16.4659 36.5328 16.4659C35.9703 16.4659 35.4646 16.5881 35.0157 16.8324C34.5725 17.071 34.2231 17.4034 33.9674 17.8295C33.7117 18.2557 33.5839 18.7472 33.5839 19.304V27H30.4987ZM42.5868 22.892L42.5783 19.1676H43.0726L47.7771 13.9091H51.3822L45.5953 20.3523H44.9561L42.5868 22.892ZM39.7743 27V9.54545H42.8595V27H39.7743ZM47.9902 27L43.7288 21.0426L45.8084 18.8693L51.6805 27H47.9902ZM53.3347 27V9.54545H64.5165V12.196H56.4966V16.9347H63.7495V19.5852H56.4966V27H53.3347ZM70.1061 9.54545V27H67.0209V9.54545H70.1061ZM95.0397 27L91.3409 13.9091H94.4858L96.7869 23.1136H96.9062L99.2585 13.9091H102.369L104.722 23.0625H104.849L107.116 13.9091H110.27L106.562 27H103.349L100.895 18.1534H100.716L98.2613 27H95.0397Z" fill="#333333"/>
</svg>
