<svg width="111" height="36" viewBox="0 0 111 36" fill="none" xmlns="http://www.w3.org/2000/svg">
<path d="M85.117 22.3333C86.4228 22.3333 87.1064 20.405 87.1064 18.5C87.1064 16.595 86.4228 14.6667 85.117 14.6667C83.8113 14.6667 83.1277 16.595 83.1277 18.5C83.1277 20.405 83.8113 22.3333 85.117 22.3333ZM85.117 15.6667C85.3494 15.6667 86.0213 16.6408 86.0213 18.5C86.0213 20.3592 85.3494 21.3333 85.117 21.3333C84.8846 21.3333 84.2128 20.3592 84.2128 18.5C84.2128 16.6408 84.8846 15.6667 85.117 15.6667ZM86.8774 25.8536L87.261 26C88.9049 24.5833 90 21.7858 90 18.5C90 13.7333 87.696 10 84.7553 10H78.2447C75.304 10 73 13.7333 73 18.5C73 23.2667 75.304 27 78.2447 27L86.8774 26.8536C87.0213 26.8536 87.1593 26.8009 87.261 26.7071C87.3628 26.6133 87.4199 26.4862 87.4199 26.3536C87.4199 26.2209 87.3628 26.0938 87.261 26C87.1593 25.9062 87.0213 25.8536 86.8774 25.8536ZM88.9149 18.5C88.9149 22.5658 87.0096 26 84.7553 26C82.501 26 80.5957 22.5658 80.5957 18.5C80.5957 14.4342 82.501 11 84.7553 11C87.0096 11 88.9149 14.4342 88.9149 18.5ZM74.0851 18.5C74.0851 18.2617 74.0923 18.0258 74.105 17.7917L77.1596 15.7808L79.5559 17.3583C79.526 17.7308 79.5106 18.1083 79.5106 18.5C79.5054 19.5668 79.6267 20.6309 79.8723 21.6733L77.4715 20.09C77.3793 20.029 77.2686 19.9961 77.1551 19.9961C77.0415 19.9961 76.9308 20.029 76.8386 20.09L74.4785 21.6433C74.2126 20.6136 74.0806 19.5584 74.0851 18.5ZM78.2447 11H82.2496C81.0018 12.0767 80.0713 13.9458 79.6915 16.2208L77.4752 14.76C77.3829 14.699 77.2722 14.6661 77.1587 14.6661C77.0451 14.6661 76.9344 14.699 76.8422 14.76L74.247 16.4692C74.7515 13.3533 76.3783 11 78.2447 11ZM78.2447 26C76.8359 26 75.5645 24.66 74.8085 22.6667L77.1596 21.1183L80.3724 23.2342C80.8444 24.3942 81.4882 25.3467 82.2496 26.0042L78.2447 26Z" fill="#4B58B6"/>
<path d="M2.00284 27V9.54545H8.5483C9.8892 9.54545 11.0142 9.79545 11.9233 10.2955C12.8381 10.7955 13.5284 11.483 13.9943 12.358C14.4659 13.2273 14.7017 14.2159 14.7017 15.3239C14.7017 16.4432 14.4659 17.4375 13.9943 18.3068C13.5227 19.1761 12.8267 19.8608 11.9062 20.3608C10.9858 20.8551 9.85227 21.1023 8.50568 21.1023H4.16761V18.5028H8.07955C8.86364 18.5028 9.50568 18.3665 10.0057 18.0938C10.5057 17.821 10.875 17.446 11.1136 16.9688C11.358 16.4915 11.4801 15.9432 11.4801 15.3239C11.4801 14.7045 11.358 14.1591 11.1136 13.6875C10.875 13.2159 10.5028 12.8494 9.99716 12.5881C9.49716 12.321 8.85227 12.1875 8.0625 12.1875H5.16477V27H2.00284ZM20.6045 27.2642C19.7749 27.2642 19.0278 27.1165 18.363 26.821C17.7039 26.5199 17.1812 26.0767 16.7948 25.4915C16.4141 24.9062 16.2238 24.1847 16.2238 23.3267C16.2238 22.5881 16.3601 21.9773 16.6329 21.4943C16.9056 21.0114 17.2778 20.625 17.7493 20.3352C18.2209 20.0455 18.7522 19.8267 19.3431 19.679C19.9397 19.5256 20.5562 19.4148 21.1925 19.3466C21.9596 19.267 22.5817 19.196 23.059 19.1335C23.5363 19.0653 23.8829 18.9631 24.0988 18.8267C24.3204 18.6847 24.4312 18.4659 24.4312 18.1705V18.1193C24.4312 17.4773 24.2408 16.9801 23.8601 16.6278C23.4795 16.2756 22.9312 16.0994 22.2153 16.0994C21.4596 16.0994 20.8601 16.2642 20.417 16.5938C19.9795 16.9233 19.684 17.3125 19.5306 17.7614L16.6499 17.3523C16.8772 16.5568 17.2522 15.892 17.7749 15.358C18.2976 14.8182 18.9368 14.4148 19.6925 14.1477C20.4482 13.875 21.2834 13.7386 22.1982 13.7386C22.8289 13.7386 23.4567 13.8125 24.0817 13.9602C24.7067 14.108 25.2778 14.3523 25.7948 14.6932C26.3118 15.0284 26.7266 15.4858 27.0391 16.0653C27.3573 16.6449 27.5164 17.3693 27.5164 18.2386V27H24.5505V25.2017H24.4482C24.2607 25.5653 23.9965 25.9062 23.6556 26.2244C23.3204 26.5369 22.8971 26.7898 22.3857 26.983C21.88 27.1705 21.2863 27.2642 20.6045 27.2642ZM21.4056 24.9972C22.0249 24.9972 22.5618 24.875 23.0164 24.6307C23.4709 24.3807 23.8204 24.0511 24.0647 23.642C24.3147 23.233 24.4397 22.7869 24.4397 22.304V20.7614C24.3431 20.8409 24.1783 20.9148 23.9454 20.983C23.7181 21.0511 23.4624 21.1108 23.1783 21.1619C22.8942 21.2131 22.613 21.2585 22.3346 21.2983C22.0562 21.3381 21.8147 21.3722 21.6101 21.4006C21.1499 21.4631 20.738 21.5653 20.3743 21.7074C20.0107 21.8494 19.7238 22.0483 19.5136 22.304C19.3033 22.554 19.1982 22.8778 19.1982 23.2756C19.1982 23.8438 19.4056 24.2727 19.8204 24.5625C20.2351 24.8523 20.7636 24.9972 21.4056 24.9972ZM30.3787 27V13.9091H33.3701V16.0909H33.5065C33.7451 15.3352 34.1542 14.7528 34.7338 14.3438C35.319 13.929 35.9866 13.7216 36.7366 13.7216C36.9071 13.7216 37.0974 13.7301 37.3076 13.7472C37.5236 13.7585 37.7025 13.7784 37.8446 13.8068V16.6449C37.7139 16.5994 37.5065 16.5597 37.2224 16.5256C36.944 16.4858 36.6741 16.4659 36.4128 16.4659C35.8503 16.4659 35.3446 16.5881 34.8957 16.8324C34.4525 17.071 34.1031 17.4034 33.8474 17.8295C33.5917 18.2557 33.4639 18.7472 33.4639 19.304V27H30.3787ZM42.4668 22.892L42.4583 19.1676H42.9526L47.6571 13.9091H51.2622L45.4753 20.3523H44.8361L42.4668 22.892ZM39.6543 27V9.54545H42.7395V27H39.6543ZM47.8702 27L43.6088 21.0426L45.6884 18.8693L51.5605 27H47.8702ZM53.2147 27V9.54545H64.3965V12.196H56.3766V16.9347H63.6295V19.5852H56.3766V27H53.2147ZM69.9861 9.54545V27H66.9009V9.54545H69.9861ZM94.9197 27L91.2209 13.9091H94.3658L96.6669 23.1136H96.7862L99.1385 13.9091H102.249L104.602 23.0625H104.729L106.996 13.9091H110.15L106.442 27H103.229L100.775 18.1534H100.596L98.1413 27H94.9197Z" fill="#4B58B6"/>
</svg>
